<svg xmlns="http://www.w3.org/2000/svg" viewBox="0 0 512 512">
    <!-- Background Circle -->
    <circle cx="256" cy="256" r="256" fill="#6F4E37"/>
    
    <!-- Medical Cross background -->
    <rect x="226" y="116" width="60" height="280" fill="#D27D2D" rx="10"/>
    <rect x="116" y="226" width="280" height="60" fill="#D27D2D" rx="10"/>
    
    <!-- Chai Cup -->
    <path d="M156 186 h200 v120 a100 100 0 0 1 -100 100 a100 100 0 0 1 -100 -100 Z" fill="#FAF6F0"/>
    <path d="M356 226 h40 a40 40 0 0 1 40 40 a40 40 0 0 1 -40 40 h-40" fill="none" stroke="#FAF6F0" stroke-width="20"/>
    
    <!-- Tea Leaf -->
    <path d="M256 126 c -40 0, -40 40, 0 80 c 40 -40, 40 -80, 0 -80 Z" fill="#4CAF50"/>
</svg>
